<?xml version="1.0" encoding="UTF-8"?><svg xmlns="http://www.w3.org/2000/svg" viewBox="0 0 1324.67 1396.47"><defs><style>.g{fill:none;}.h{fill:#212530;}</style></defs><g id="a"/><g id="b"/><g id="c"/><g id="d"/><g id="e"/><g id="f"><g><g><path class="h" d="M586.57,501.43c106.33,0,212.66,.18,318.98-.23,13.38-.05,16.71,1.49,13.63,16.9l-35.59,177.94c-2.42,12.1-5.3,16.83-18.86,16.8-199.61-.53-399.22-.52-598.83-.03-14.4,.04-17.08-4.79-16.94-17.86,.64-58.68,.9-117.38-.14-176.04-.28-15.5,4.83-17.86,18.76-17.79,106.33,.57,212.66,.31,318.98,.31Z"/><path class="h" d="M852.43,779.36c7.37,0,12.91,6.76,11.47,13.98-12.57,63.21-24.93,124.89-36.89,186.65-1.73,8.92-5.58,10.99-14.3,10.98-135.69-.3-271.39-.33-407.08,.01-10.9,.03-14.52-2.69-14.42-14.04,.53-61.29,.4-122.59,.09-183.89-.05-9.34,1.25-13.96,12.49-13.93,148.61,.34,297.22,.25,448.63,.24Z"/><path class="h" d="M811.22,1055.73c-11.01,57.25-21.97,112.03-31.28,158.58-1.39,6.95-4.34,10.44-13.67,10.4-6.83-.04-44.26,.81-53.09,.81-35.36-.11-70.74-.12-106.1-.01-26.01,.08-51.94,2.83-77.11,8.4-27.58,6.09-50.65,13.55-68.4,20.11-2.71,1-5.71-.76-5.56-3.27,1.41-24.6,11.41-107.18,87.87-162.09,3.85-2.79,7.89-5.49,12.1-8.12,28.95-18.04,58.55-27.4,82.54-32.37,13.4-2.78,27.14-4.09,40.93-4.09h.16c19.08,0,38.11,.04,57.17,.04,20.76,.02,41.5-.02,62.27-.16,10.35-.08,14.37,.52,12.2,11.79Z"/></g><line class="g" x1="1526.22" y1="28.77" x2="1275.13" y2="1294.89"/><path class="h" d="M954.14,232.12v.04c-44.28-11.24-52.98-15.31-88.65-20.69-65.36-9.87-135.03-20.4-213.26,10.66-76.25,30.26-116.59,82.54-150.62,126.62-41.34,53.55-35.17,70.51-33.34,74.66,11.03,24.72,60.92,25.27,121.31,25.32,16.79,.01,32.1-.46,46.13-1.23,43.02-2.37,58.37-6.03,92.49-9.44,41.74-4.17,110.67-7.71,190.08,3.65,.76,.11,1.46,.09,2.13,0,4.26,0,7.34-.13,9.63-.82,4.01-1.21,5.6-4.21,6.97-11.49,11.17-59.41,22.49-118.82,35.37-177.87,3.35-15.36-3.67-16.13-18.23-19.41Zm-311.32,82.28c-8.21,11.98-25.55,19.62-31.8,14.26-5.51-4.73-2.67-19.83,5.48-28.51,9.04-9.62,25.8-12.61,30.7-6.58,4.1,5.04-.78,15.57-4.39,20.83Z"/></g></g></svg>